<svg width="609" height="500" viewBox="0 0 609 500" xmlns="http://www.w3.org/2000/svg"><title>browser-window</title><g stroke="#273AEF" stroke-width="2" fill="none" fill-rule="evenodd"><path d="M72 32c-5 0-9-4-9-9s4-9 9-9 9 4 9 9-4 9-9 9zM48 32c-5 0-9-4-9-9s4-9 9-9 9 4 9 9-4 9-9 9zM24 32c-5 0-9-4-9-9s4-9 9-9 9 4 9 9-4 9-9 9zM590 14v19c0 1.7-1.3 3-3 3H101c-1.7 0-3-1.3-3-3V14c0-1.7 1.3-3 3-3h486c1.7 0 3 1.3 3 3z"/><path d="M608 6.4v487.2c0 3-3 5.4-7 5.4H8c-4 0-7-2.5-7-5.4V6.4C1 3.4 4 1 8 1h593c4 0 7 2.5 7 5.4z"/></g></svg>
