<?xml version="1.0" encoding="UTF-8"?>
<svg width="609px" height="500px" viewBox="0 0 609 500" version="1.1" xmlns="http://www.w3.org/2000/svg" xmlns:xlink="http://www.w3.org/1999/xlink">
    <!-- Generator: Sketch 43.2 (39069) - http://www.bohemiancoding.com/sketch -->
    <title>browser-window</title>
    <desc>Created with Sketch.</desc>
    <defs></defs>
    <g id="Page-1" stroke="none" stroke-width="1" fill="none" fill-rule="evenodd">
        <g id="browser-window" stroke="#273AEF" stroke-width="2">
            <path d="M72,32 C67.0294373,32 63,27.9705627 63,23 C63,18.0294373 67.0294373,14 72,14 C76.9705627,14 81,18.0294373 81,23 C81,27.9705627 76.9705627,32 72,32 Z" id="butt-3"></path>
            <path d="M48,32 C43.0294373,32 39,27.9705627 39,23 C39,18.0294373 43.0294373,14 48,14 C52.9705627,14 57,18.0294373 57,23 C57,27.9705627 52.9705627,32 48,32 Z" id="butt-2"></path>
            <path d="M24,32 C19.0294373,32 15,27.9705627 15,23 C15,18.0294373 19.0294373,14 24,14 C28.9705627,14 33,18.0294373 33,23 C33,27.9705627 28.9705627,32 24,32 Z" id="butt-1"></path>
            <path d="M590,13.9984707 L590,33.0015293 C590,34.6563563 588.658213,36 587.005481,36 L100.994519,36 C99.3411338,36 98,34.6576225 98,33.0015293 L98,13.9984707 C98,12.3436437 99.3417875,11 100.994519,11 L587.005481,11 C588.658866,11 590,12.3423775 590,13.9984707 Z" id="url-bar"></path>
            <path d="M608,6.41297258 L608,493.587027 C608,496.51999 604.904401,499 600.992951,499 L8.00704915,499 C4.08901494,499 1,496.524154 1,493.587027 L1,6.41297258 C1,3.48000957 4.095599,1 8.00704915,1 L600.992951,1 C604.910985,1 608,3.47584606 608,6.41297258 Z" id="window"></path>
        </g>
    </g>
</svg>